<svg id="Layer_1" data-name="Layer 1" xmlns="http://www.w3.org/2000/svg" viewBox="0 0 697.89 174.86"><defs><style>.cls-1{fill:#cd7100;}.cls-2{fill:#706123;}.cls-3{fill:#aca07a;}</style></defs><title>Artboard 3</title><path class="cls-1" d="M69,118.56V107.65C95.61,88,103.41,81.36,103.41,73.36c0-5.74-5.17-8.46-10.53-8.46a23.2,23.2,0,0,0-17.43,7.49l-7.89-9.15c6.34-7.3,16-10.62,25-10.62,13.92,0,24.84,7.8,24.84,20.74,0,11.11-9.15,20.75-26,33h26.49v12.18Z"/><path class="cls-1" d="M140.28,110l7.69-9.64a23.42,23.42,0,0,0,17.24,7.11c7.69,0,12.08-4.38,12.08-9.64,0-5.75-4.29-9.64-11.69-9.64A18.69,18.69,0,0,0,152,93.42l-9.63-2.62V53.6h44.6V65.77H156.16V81.64a20.6,20.6,0,0,1,14.31-5.45c11,0,20.84,7.89,20.84,21,0,13.73-10.32,22.49-26,22.49C154,119.72,145.83,116,140.28,110Z"/><path class="cls-2" d="M267.62,118.56V92L242.69,53.6h15.77l16.07,26,16.07-26h15.69L281.45,92v26.59Z"/><path class="cls-2" d="M329.33,118.56v-65h46V65.77H343.15V79.4h31.47V91.58H343.15v14.8h32.14v12.18Z"/><path class="cls-2" d="M452.2,118.56l-4.09-11H420.25l-4.09,11H400.48l25-65h17.34l25,65Zm-18-51.13L424.05,95.38H444.3Z"/><path class="cls-2" d="M530.56,118.56,517.8,95.47H507.68v23.09H493.85v-65h30.38c13.54,0,21.91,8.86,21.91,20.94,0,11.39-7.3,17.62-14.32,19.28l14.71,24.74Zm1.36-44.12c0-5.36-4.19-8.67-9.64-8.67h-14.6V83.3h14.6C527.73,83.3,531.92,80,531.92,74.44Z"/><path class="cls-2" d="M569.63,109.4l7.59-10.81a28.52,28.52,0,0,0,20.64,8.86c7.7,0,11.3-3.4,11.3-7.21,0-11.29-37.39-3.4-37.39-27.85,0-10.81,9.35-19.77,24.63-19.77,10.33,0,18.9,3.12,25.33,9.06L614,72a27.83,27.83,0,0,0-18.89-7.11c-5.85,0-9.15,2.53-9.15,6.42,0,10.23,37.29,3.31,37.29,27.56,0,11.88-8.57,20.84-26,20.84C584.72,119.72,575.76,115.54,569.63,109.4Z"/><rect class="cls-3" width="697.89" height="4.15"/><rect class="cls-3" y="170.71" width="697.89" height="4.15"/></svg>