<?xml version="1.0" encoding="utf-8"?>
<!-- Generator: Adobe Illustrator 17.1.0, SVG Export Plug-In . SVG Version: 6.00 Build 0)  -->
<!DOCTYPE svg PUBLIC "-//W3C//DTD SVG 1.1//EN" "http://www.w3.org/Graphics/SVG/1.1/DTD/svg11.dtd">
<svg version="1.1" id="Layer_1" xmlns="http://www.w3.org/2000/svg" xmlns:xlink="http://www.w3.org/1999/xlink" x="0px" y="0px"
	 viewBox="0 0 322.35 37.025" enable-background="new 0 0 322.35 37.025" xml:space="preserve">
<path fill="none" stroke="#706123" stroke-width="0.5" stroke-dasharray="2,1.9" d="M43.252,0v37.105 M142.284,0v37.105"/>
<rect x="0" y="0" fill="none" width="322.35" height="37.025"/>
<path fill="#706123" d="M160.831,12.917h-2.184v2.636h-1.26V8.56h3.444c1.911,0,2.751,0.861,2.751,2.079v0.189
	C163.582,12.046,162.742,12.917,160.831,12.917 M162.312,10.639c0-0.578-0.389-1.008-1.344-1.008h-2.321v2.257h2.374
	c0.955,0,1.291-0.462,1.291-1.029V10.639z"/>
<path fill="#706123" d="M169.798,15.805c-2.247,0-3.329-1.218-3.329-2.908V8.56h1.26v4.347c0,1.155,0.725,1.816,2.131,1.816
	c1.45,0,2.048-0.661,2.048-1.816V8.56h1.26v4.337C173.168,14.524,172.107,15.805,169.798,15.805"/>
<path fill="#706123" d="M180.256,15.553h-3.77V8.56h3.728c1.659,0,2.468,0.724,2.468,1.795v0.126c0,0.766-0.452,1.376-1.355,1.554
	c1.029,0.168,1.46,0.862,1.46,1.481v0.189C182.787,14.807,181.904,15.553,180.256,15.553 M181.464,10.534
	c0-0.504-0.316-0.914-1.176-0.914h-2.531v1.995h2.447c0.871,0,1.26-0.42,1.26-0.955V10.534z M181.475,13.463
	c0-0.546-0.369-0.945-1.25-0.945h-2.468v2.006h2.541c0.872,0,1.177-0.421,1.177-0.924V13.463z"/>
<polyline fill="#706123" points="185.884,15.553 185.884,8.56 187.145,8.56 187.145,14.482 191.9,14.482 191.9,15.553 
	185.884,15.553 "/>
<rect x="194.703" y="8.56" fill="#706123" width="1.261" height="6.993"/>
<path fill="#706123" d="M205.183,10.597c-0.484-0.62-1.271-1.197-2.394-1.197c-1.607,0-2.489,1.071-2.489,2.32v0.735
	c0,1.229,0.892,2.268,2.552,2.268c1.071,0,1.879-0.557,2.351-1.207l0.893,0.64c-0.588,0.861-1.753,1.649-3.318,1.649
	c-2.373,0-3.749-1.565-3.749-3.35V11.72c0-1.795,1.481-3.402,3.802-3.402c1.501,0,2.719,0.777,3.265,1.638L205.183,10.597"/>
<path fill="#706123" d="M217.1,12.917h-2.184v2.636h-1.261V8.56h3.445c1.911,0,2.751,0.861,2.751,2.079v0.189
	C219.851,12.046,219.011,12.917,217.1,12.917 M218.58,10.639c0-0.578-0.389-1.008-1.344-1.008h-2.32v2.257h2.373
	c0.955,0,1.291-0.462,1.291-1.029V10.639z"/>
<path fill="#706123" d="M226.109,15.805c-2.247,0-3.623-1.596-3.623-3.308v-0.871c0-1.743,1.376-3.308,3.623-3.308
	c2.257,0,3.633,1.565,3.633,3.308v0.871C229.742,14.209,228.366,15.805,226.109,15.805 M228.472,11.626
	c0-1.197-0.829-2.226-2.363-2.226c-1.533,0-2.352,1.029-2.352,2.226v0.85c0,1.197,0.819,2.247,2.352,2.247
	c1.534,0,2.363-1.05,2.363-2.247V11.626z"/>
<polyline fill="#706123" points="232.808,15.553 232.808,8.56 234.068,8.56 234.068,14.482 238.824,14.482 238.824,15.553 
	232.808,15.553 "/>
<rect x="241.627" y="8.56" fill="#706123" width="1.261" height="6.993"/>
<path fill="#706123" d="M252.106,10.597c-0.483-0.62-1.27-1.197-2.393-1.197c-1.608,0-2.489,1.071-2.489,2.32v0.735
	c0,1.229,0.892,2.268,2.551,2.268c1.072,0,1.88-0.557,2.352-1.207l0.893,0.64c-0.588,0.861-1.753,1.649-3.318,1.649
	c-2.373,0-3.749-1.565-3.749-3.35V11.72c0-1.795,1.481-3.402,3.802-3.402c1.501,0,2.719,0.777,3.265,1.638L252.106,10.597"/>
<polyline fill="#706123" points="259.457,12.749 259.457,15.553 258.196,15.553 258.196,12.739 255.047,8.56 256.517,8.56 
	258.879,11.794 261.115,8.56 262.564,8.56 259.457,12.749 "/>
<rect x="157.387" y="21.56" fill="#706123" width="1.26" height="6.993"/>
<polyline fill="#706123" points="167.193,28.552 163.277,24.132 162.773,23.481 162.773,28.552 161.523,28.552 161.523,21.56 
	162.689,21.56 166.479,25.992 166.994,26.642 166.994,21.56 168.233,21.56 168.233,28.552 167.193,28.552 "/>
<path fill="#706123" d="M173.903,28.804c-1.322,0-2.456-0.429-3.474-1.07l0.63-0.955c1.018,0.65,1.953,0.965,3.003,0.965
	c1.228,0,1.805-0.473,1.805-1.03c0-1.595-5.197-0.638-5.197-3.18c0-1.239,1.239-2.216,3.233-2.216c1.345,0,2.51,0.504,3.193,1.187
	l-0.778,0.798c-0.588-0.515-1.49-0.924-2.435-0.924c-1.166,0-1.953,0.42-1.953,1.018c0,1.481,5.208,0.693,5.208,3.192
	C177.138,27.912,175.805,28.804,173.903,28.804"/>
<polyline fill="#706123" points="182.934,22.631 182.934,28.552 181.674,28.552 181.674,22.631 178.954,22.631 178.954,21.56 
	185.653,21.56 185.653,22.631 182.934,22.631 "/>
<rect x="188.078" y="21.56" fill="#706123" width="1.261" height="6.993"/>
<polyline fill="#706123" points="195.754,22.631 195.754,28.552 194.494,28.552 194.494,22.631 191.774,22.631 191.774,21.56 
	198.474,21.56 198.474,22.631 195.754,22.631 "/>
<path fill="#706123" d="M203.934,28.804c-2.247,0-3.33-1.217-3.33-2.908V21.56h1.261v4.348c0,1.154,0.725,1.816,2.131,1.816
	c1.449,0,2.048-0.662,2.048-1.816V21.56h1.26v4.336C207.304,27.523,206.243,28.804,203.934,28.804"/>
<polyline fill="#706123" points="213.635,22.631 213.635,28.552 212.375,28.552 212.375,22.631 209.655,22.631 209.655,21.56 
	216.354,21.56 216.354,22.631 213.635,22.631 "/>
<polyline fill="#706123" points="218.779,28.552 218.779,21.56 224.491,21.56 224.491,22.631 220.04,22.631 220.04,24.437 
	223.432,24.437 223.432,25.466 220.04,25.466 220.04,27.482 224.491,27.482 224.491,28.552 218.779,28.552 "/>
<path fill="#706123" d="M233.246,28.732c-1.605,0-2.588-1.139-2.588-2.361v-0.624c0-1.244,0.983-2.362,2.588-2.362
	c1.612,0,2.595,1.118,2.595,2.362v0.624C235.841,27.593,234.858,28.732,233.246,28.732 M234.934,25.747
	c0-0.855-0.593-1.59-1.688-1.59s-1.68,0.735-1.68,1.59v0.608c0,0.855,0.585,1.605,1.68,1.605s1.688-0.75,1.688-1.605V25.747z"/>
<polyline fill="#706123" points="238.556,24.322 238.556,25.755 240.881,25.755 240.881,26.49 238.556,26.49 238.556,28.552 
	237.655,28.552 237.655,23.558 241.66,23.558 241.66,24.322 238.556,24.322 "/>
<path fill="#706123" d="M252.411,23.597c-0.483-0.619-1.27-1.198-2.393-1.198c-1.608,0-2.49,1.072-2.49,2.321v0.735
	c0,1.228,0.893,2.269,2.552,2.269c1.071,0,1.88-0.557,2.352-1.209l0.892,0.641c-0.588,0.861-1.753,1.648-3.317,1.648
	c-2.373,0-3.749-1.564-3.749-3.349V24.72c0-1.795,1.48-3.402,3.802-3.402c1.501,0,2.718,0.778,3.264,1.638L252.411,23.597"/>
<path fill="#706123" d="M260.905,28.552l-0.798-1.742h-3.528l-0.776,1.742h-1.313l3.297-6.992h1.113l3.349,6.992H260.905
	 M258.312,22.956l-1.313,2.899h2.657L258.312,22.956z"/>
<polyline fill="#706123" points="264.328,28.552 264.328,21.56 265.589,21.56 265.589,27.482 270.345,27.482 270.345,28.552 
	264.328,28.552 "/>
<rect x="272.413" y="21.56" fill="#706123" width="1.261" height="6.993"/>
<polyline fill="#706123" points="277.811,22.631 277.811,24.636 281.065,24.636 281.065,25.666 277.811,25.666 277.811,28.552 
	276.55,28.552 276.55,21.56 282.157,21.56 282.157,22.631 277.811,22.631 "/>
<path fill="#706123" d="M287.05,28.804c-2.247,0-3.623-1.596-3.623-3.307v-0.87c0-1.744,1.376-3.309,3.623-3.309
	c2.257,0,3.633,1.565,3.633,3.309v0.87C290.683,27.208,289.307,28.804,287.05,28.804 M289.412,24.627
	c0-1.198-0.829-2.228-2.362-2.228c-1.533,0-2.353,1.03-2.353,2.228v0.849c0,1.197,0.82,2.248,2.353,2.248
	c1.533,0,2.362-1.051,2.362-2.248V24.627z"/>
<path fill="#706123" d="M298.316,28.574c-0.494,0-0.693-0.442-0.724-1.114l-0.031-0.808c-0.033-0.66-0.305-0.965-1.439-0.965h-2.163
	v2.865h-1.261V21.56h3.445c1.921,0,2.761,0.808,2.761,1.879v0.105c0,0.766-0.367,1.428-1.586,1.659
	c1.219,0.095,1.523,0.714,1.523,1.48l0.011,0.694c0.01,0.419,0.094,0.703,0.409,0.966v0.231H298.316 M297.623,23.555
	c0-0.484-0.347-0.935-1.333-0.935h-2.331v2.132h2.383c0.872,0,1.281-0.431,1.281-0.998V23.555z"/>
<polyline fill="#706123" points="307.314,28.552 303.398,24.132 302.895,23.481 302.895,28.552 301.645,28.552 301.645,21.56 
	302.811,21.56 306.601,25.992 307.115,26.642 307.115,21.56 308.354,21.56 308.354,28.552 307.314,28.552 "/>
<rect x="311.23" y="21.56" fill="#706123" width="1.261" height="6.993"/>
<path fill="#706123" d="M321.006,28.552l-0.798-1.742h-3.528l-0.777,1.742h-1.312l3.297-6.992h1.113l3.349,6.992H321.006
	 M318.412,22.956l-1.312,2.899h2.657L318.412,22.956z"/>
<polyline fill="#CD7100" points="16.273,13.578 17.51,13.578 16.893,1.66 16.273,13.578 "/>
<polyline fill="#CD7100" points="18.037,12.843 16.893,16.068 15.748,12.843 16.893,13.378 18.037,12.843 "/>
<polyline fill="#CD7100" points="17.51,23.527 16.275,23.527 16.893,35.445 17.51,23.527 "/>
<polyline fill="#CD7100" points="15.746,24.263 16.893,21.037 18.037,24.263 16.893,23.728 15.746,24.263 "/>
<polyline fill="#CD7100" points="11.92,19.169 11.92,17.935 0,18.55 11.92,19.169 "/>
<polyline fill="#CD7100" points="11.184,17.408 14.41,18.55 11.182,19.697 11.719,18.55 11.184,17.408 "/>
<polyline fill="#CD7100" points="21.865,17.933 21.865,19.169 33.783,18.55 21.865,17.933 "/>
<polyline fill="#CD7100" points="22.602,19.697 19.375,18.55 22.602,17.408 22.064,18.55 22.602,19.697 "/>
<polyline fill="#CD7100" points="12.939,15.474 13.811,14.599 4.947,6.609 12.939,15.474 "/>
<polyline fill="#CD7100" points="13.662,13.706 15.137,16.796 12.045,15.324 13.234,14.894 13.662,13.706 "/>
<polyline fill="#CD7100" points="20.846,21.634 19.971,22.507 28.836,30.499 20.846,21.634 "/>
<polyline fill="#CD7100" points="20.119,23.4 18.648,20.308 21.74,21.783 20.551,22.214 20.119,23.4 "/>
<polyline fill="#CD7100" points="13.813,22.507 12.939,21.634 4.947,30.499 13.813,22.507 "/>
<polyline fill="#CD7100" points="12.045,21.783 15.137,20.308 13.662,23.4 13.234,22.214 12.045,21.783 "/>
<polyline fill="#CD7100" points="19.971,14.597 20.844,15.47 28.836,6.609 19.971,14.597 "/>
<polyline fill="#CD7100" points="21.74,15.324 18.648,16.796 20.119,13.706 20.551,14.894 21.74,15.324 "/>
<polyline fill="#706123" points="20.883,29.802 22.023,29.33 16.893,18.55 20.883,29.802 "/>
<polyline fill="#706123" points="22.229,28.447 22.404,31.865 20.113,29.322 21.377,29.378 22.229,28.447 "/>
<polyline fill="#706123" points="12.902,7.302 11.762,7.775 16.893,18.55 12.902,7.302 "/>
<polyline fill="#706123" points="11.555,8.656 11.377,5.24 13.67,7.783 12.406,7.724 11.555,8.656 "/>
<polyline fill="#706123" points="28.141,14.56 27.666,13.419 16.893,18.55 28.141,14.56 "/>
<polyline fill="#706123" points="26.785,13.214 30.203,13.037 27.662,15.33 27.719,14.066 26.785,13.214 "/>
<polyline fill="#706123" points="5.645,22.544 6.115,23.685 16.893,18.55 5.645,22.544 "/>
<polyline fill="#706123" points="7,23.888 3.58,24.068 6.123,21.775 6.066,23.039 7,23.888 "/>
<polyline fill="#706123" points="27.666,23.685 28.139,22.544 16.893,18.55 27.666,23.685 "/>
<polyline fill="#706123" points="27.662,21.775 30.203,24.068 26.785,23.888 27.719,23.039 27.662,21.775 "/>
<polyline fill="#706123" points="6.115,13.419 5.645,14.56 16.893,18.55 6.115,13.419 "/>
<polyline fill="#706123" points="6.123,15.33 3.58,13.037 7,13.214 6.066,14.066 6.123,15.33 "/>
<polyline fill="#706123" points="22.023,7.775 20.883,7.304 16.893,18.55 22.023,7.775 "/>
<polyline fill="#706123" points="20.113,7.781 22.404,5.24 22.229,8.656 21.377,7.724 20.113,7.781 "/>
<polyline fill="#706123" points="11.76,29.33 12.9,29.802 16.893,18.55 11.76,29.33 "/>
<polyline fill="#706123" points="13.67,29.322 11.377,31.865 11.555,28.447 12.406,29.378 13.67,29.322 "/>
<path fill="#CD7100" d="M62.678,23.152v5.394h-4.259V8.558h15.269c2.248,0,3.373,1.166,3.373,3.494v8.026
	c0,2.05-1.125,3.074-3.373,3.074H62.678 M71.848,18.894c0.657,0,0.985-0.295,0.985-0.883v-3.668c0-0.719-0.328-1.078-0.985-1.078
	h-9.17v5.629H71.848z"/>
<path fill="#CD7100" d="M85.039,23.152v5.394h-4.26V8.558h15.27c2.247,0,3.372,1.166,3.372,3.494v8.026
	c0,2.05-1.125,3.074-3.372,3.074H85.039 M94.208,18.894c0.657,0,0.986-0.295,0.986-0.883v-3.668c0-0.719-0.329-1.078-0.986-1.078
	h-9.169v5.629H94.208z"/>
<rect x="103.14" y="8.558" fill="#CD7100" width="4.258" height="19.988"/>
<path fill="#CD7100" d="M115.353,22.808c0,0.688,0.36,1.031,1.08,1.031h10.595v4.707h-12.536c-2.245,0-3.367-1.156-3.367-3.468
	V12.054c0-2.33,1.122-3.496,3.367-3.496h12.536v4.707h-10.669c-0.671,0-1.006,0.361-1.006,1.082V22.808"/>
</svg>
