<?xml version="1.0" encoding="utf-8"?>
<!-- Generator: Adobe Illustrator 15.0.2, SVG Export Plug-In . SVG Version: 6.00 Build 0)  -->
<!DOCTYPE svg PUBLIC "-//W3C//DTD SVG 1.1//EN" "http://www.w3.org/Graphics/SVG/1.1/DTD/svg11.dtd">
<svg version="1.1" id="Layer_1" xmlns="http://www.w3.org/2000/svg" xmlns:xlink="http://www.w3.org/1999/xlink" x="0px" y="0px"
	 width="141.995px" height="37.025px" viewBox="0 0 141.995 37.025" enable-background="new 0 0 141.995 37.025"
	 xml:space="preserve">
<path fill="none" stroke="#706123" stroke-width="0.5" stroke-dasharray="2,1.9" d="M43.252,0v37.105 M142.284,37.105 M142.284,0"/>
<rect fill="none" width="141.995" height="37.025"/>
<polyline fill="#CD7100" points="16.273,13.578 17.51,13.578 16.893,1.66 16.273,13.578 "/>
<polyline fill="#CD7100" points="18.037,12.843 16.893,16.068 15.748,12.843 16.893,13.378 18.037,12.843 "/>
<polyline fill="#CD7100" points="17.51,23.527 16.275,23.527 16.893,35.445 17.51,23.527 "/>
<polyline fill="#CD7100" points="15.746,24.263 16.893,21.037 18.037,24.263 16.893,23.728 15.746,24.263 "/>
<polyline fill="#CD7100" points="11.92,19.169 11.92,17.935 0,18.55 11.92,19.169 "/>
<polyline fill="#CD7100" points="11.184,17.408 14.41,18.55 11.182,19.697 11.719,18.55 11.184,17.408 "/>
<polyline fill="#CD7100" points="21.865,17.933 21.865,19.169 33.783,18.55 21.865,17.933 "/>
<polyline fill="#CD7100" points="22.602,19.697 19.375,18.55 22.602,17.408 22.064,18.55 22.602,19.697 "/>
<polyline fill="#CD7100" points="12.939,15.474 13.811,14.599 4.947,6.609 12.939,15.474 "/>
<polyline fill="#CD7100" points="13.662,13.706 15.137,16.796 12.045,15.324 13.234,14.894 13.662,13.706 "/>
<polyline fill="#CD7100" points="20.846,21.634 19.971,22.507 28.836,30.499 20.846,21.634 "/>
<polyline fill="#CD7100" points="20.119,23.4 18.648,20.308 21.74,21.783 20.551,22.214 20.119,23.4 "/>
<polyline fill="#CD7100" points="13.813,22.507 12.939,21.634 4.947,30.499 13.813,22.507 "/>
<polyline fill="#CD7100" points="12.045,21.783 15.137,20.308 13.662,23.4 13.234,22.214 12.045,21.783 "/>
<polyline fill="#CD7100" points="19.971,14.597 20.844,15.47 28.836,6.609 19.971,14.597 "/>
<polyline fill="#CD7100" points="21.74,15.324 18.648,16.796 20.119,13.706 20.551,14.894 21.74,15.324 "/>
<polyline fill="#706123" points="20.883,29.802 22.023,29.33 16.893,18.55 20.883,29.802 "/>
<polyline fill="#706123" points="22.229,28.447 22.404,31.865 20.113,29.322 21.377,29.378 22.229,28.447 "/>
<polyline fill="#706123" points="12.902,7.302 11.762,7.775 16.893,18.55 12.902,7.302 "/>
<polyline fill="#706123" points="11.555,8.656 11.377,5.24 13.67,7.783 12.406,7.724 11.555,8.656 "/>
<polyline fill="#706123" points="28.141,14.56 27.666,13.419 16.893,18.55 28.141,14.56 "/>
<polyline fill="#706123" points="26.785,13.214 30.203,13.037 27.662,15.33 27.719,14.066 26.785,13.214 "/>
<polyline fill="#706123" points="5.645,22.544 6.115,23.685 16.893,18.55 5.645,22.544 "/>
<polyline fill="#706123" points="7,23.888 3.58,24.068 6.123,21.775 6.066,23.039 7,23.888 "/>
<polyline fill="#706123" points="27.666,23.685 28.139,22.544 16.893,18.55 27.666,23.685 "/>
<polyline fill="#706123" points="27.662,21.775 30.203,24.068 26.785,23.888 27.719,23.039 27.662,21.775 "/>
<polyline fill="#706123" points="6.115,13.419 5.645,14.56 16.893,18.55 6.115,13.419 "/>
<polyline fill="#706123" points="6.123,15.33 3.58,13.037 7,13.214 6.066,14.066 6.123,15.33 "/>
<polyline fill="#706123" points="22.023,7.775 20.883,7.304 16.893,18.55 22.023,7.775 "/>
<polyline fill="#706123" points="20.113,7.781 22.404,5.24 22.229,8.656 21.377,7.724 20.113,7.781 "/>
<polyline fill="#706123" points="11.76,29.33 12.9,29.802 16.893,18.55 11.76,29.33 "/>
<polyline fill="#706123" points="13.67,29.322 11.377,31.865 11.555,28.447 12.406,29.378 13.67,29.322 "/>
<path fill="#CD7100" d="M62.678,23.152v5.394h-4.259V8.558h15.269c2.248,0,3.373,1.166,3.373,3.494v8.026
	c0,2.05-1.125,3.074-3.373,3.074H62.678 M71.848,18.894c0.657,0,0.985-0.295,0.985-0.883v-3.668c0-0.719-0.328-1.078-0.985-1.078
	h-9.17v5.629H71.848z"/>
<path fill="#CD7100" d="M85.039,23.152v5.394h-4.26V8.558h15.27c2.247,0,3.372,1.166,3.372,3.494v8.026
	c0,2.05-1.125,3.074-3.372,3.074H85.039 M94.208,18.894c0.657,0,0.986-0.295,0.986-0.883v-3.668c0-0.719-0.329-1.078-0.986-1.078
	h-9.169v5.629H94.208z"/>
<rect x="103.14" y="8.558" fill="#CD7100" width="4.258" height="19.988"/>
<path fill="#CD7100" d="M115.353,22.808c0,0.688,0.36,1.031,1.08,1.031h10.595v4.707h-12.536c-2.245,0-3.367-1.156-3.367-3.468
	V12.054c0-2.33,1.122-3.496,3.367-3.496h12.536v4.707h-10.669c-0.671,0-1.006,0.361-1.006,1.082V22.808"/>
</svg>
